<svg xmlns="http://www.w3.org/2000/svg" width="256" height="256" viewBox="-120 -120 256 256">
  <g fill="#006065">
    <path d="M73.544 15.01L-12.09 63.518c-2.003 1.118-2.849 3.729-1.709 5.742.846 1.454 2.261 2.312 3.694 2.312.57 0 1.415-.298 1.985-.597l85.633-48.471c1.985-1.156 2.831-3.729 1.729-5.742-1.14-2.05-3.713-2.908-5.698-1.752zM-89.212-1.433c-1.709-1.752-4.265-1.752-5.974 0-1.709 1.715-1.709 4.325 0 6.04l58.89 59.172c.864.856 2.003 1.154 2.85 1.154 1.139 0 2.279-.298 3.124-1.154 1.709-1.716 1.709-4.362 0-6.078l-58.89-59.134z"/>
    <path d="M80.933 1.14L-1.576-48.786c-.294-.298-.846-.298-1.14-.559l67.144-45.6c1.984-1.454 2.573-4.064 1.139-6.078-1.434-2.014-3.97-2.61-5.955-1.156l-70.286 47.911c-2.003 1.455-2.573 4.064-1.139 6.078.846 1.155 2.279 2.013 3.418 2.013h.57c-.294.56-.294 1.156-.294 1.715-.57-1.156-1.985-2.014-3.419-2.014-2.261 0-4.264 1.752-4.559 4.027l-7.389 116.59c-.275 2.35 1.709 4.362 3.988 4.624h.276c2.279 0 3.988-1.716 4.282-4.027l7.389-116.59v-.597c.276.597.864 1.193 1.415 1.454L76.375 9.23c.588.299 1.434.56 2.279.56 1.433 0 2.83-.858 3.712-2.014 1.435-2.572.846-5.182-1.433-6.636z"/>
  </g>
  <path fill="#5E5E5E" d="M-17.218 31.415c23.27 0 42.128 19.164 42.128 42.729 0 23.64-18.858 42.766-42.128 42.766-23.288 0-42.164-19.126-42.164-42.766.001-23.565 18.877-42.729 42.164-42.729z"/>
  <path fill="#C6D300" d="M-17.218 42.302c17.333 0 31.394 14.28 31.394 31.842 0 17.636-14.061 31.88-31.394 31.88-17.369 0-31.43-14.244-31.43-31.88 0-17.562 14.061-31.842 31.43-31.842z"/>
  <path fill="#5E5E5E" d="M83.139-26.228c18.784 0 34.003 15.398 34.003 34.451 0 19.016-15.219 34.452-34.003 34.452-18.711 0-33.894-15.437-33.894-34.452 0-19.052 15.183-34.451 33.894-34.451z"/>
  <path fill="#008F88" d="M82.918-16.758c13.527 0 24.482 11.112 24.482 24.832 0 13.722-10.955 24.833-24.482 24.833-13.491 0-24.482-11.111-24.482-24.833 0-13.72 10.991-24.832 24.482-24.832z"/>
  <path fill="#5E5E5E" d="M-8.395-81.111c16.652 0 30.143 13.684 30.143 30.611 0 16.891-13.491 30.574-30.143 30.574-16.67 0-30.162-13.684-30.162-30.574 0-16.928 13.492-30.611 30.162-30.611z"/>
  <path fill="#8DB91C" d="M-8.395-71.566c11.469 0 20.733 9.433 20.733 21.066S3.074-29.434-8.395-29.434-29.183-38.868-29.183-50.5s9.319-21.066 20.788-21.066z"/>
  <path fill="#5E5E5E" d="M62.038-120c11.506 0 20.842 9.433 20.842 21.103s-9.336 21.141-20.842 21.141c-11.47 0-20.807-9.47-20.807-21.141S50.568-120 62.038-120z"/>
  <path fill="#5C861F" d="M61.854-111.983c7.241 0 13.123 5.965 13.123 13.273 0 7.345-5.882 13.273-13.123 13.273-7.205 0-13.087-5.928-13.087-13.273.001-7.308 5.882-13.273 13.087-13.273z"/>
  <path fill="#5E5E5E" d="M-95.462-26.526c13.565 0 24.537 11.148 24.537 24.906 0 13.721-10.972 24.87-24.537 24.87C-109.026 23.25-120 12.102-120-1.62c0-13.758 10.974-24.906 24.538-24.906z"/>
  <path fill="#71A21F" d="M-95.186-17.615c8.639 0 15.66 7.121 15.66 15.883 0 8.762-7.021 15.847-15.66 15.847s-15.661-7.085-15.661-15.847 7.022-15.883 15.661-15.883z"/>
  <path fill="#F1E400" d="M-89.14 17.434c10.624-3.506 16.451-15.101 12.977-25.802-1.709-5.406-5.496-9.582-10.145-11.969l6.911-13.758 9.852 5.071c1.176.596 2.609.149 3.198-1.082.331-.559.331-1.193.146-1.79-.22-.559-.588-1.118-1.139-1.416l-9.888-5.108 1.653-3.281 6.838 3.542c1.177.597 2.628.149 3.199-1.044.312-.596.349-1.23.146-1.864-.184-.522-.588-1.081-1.176-1.379l-6.875-3.542 1.636-3.318 9.888 5.108c1.195.597 2.592.149 3.216-1.082.258-.559.313-1.23.129-1.827-.165-.559-.606-1.081-1.158-1.38l-9.888-5.108 2.721-5.406a2.31 2.31 0 0 0 .166-1.827c-.203-.634-.57-1.119-1.195-1.417-1.14-.634-2.592-.149-3.198 1.044L-90.812-21.94c-3.437-.82-7.15-.783-10.771.41-10.587 3.505-16.414 15.063-12.94 25.802C-111.104 15.01-99.689 20.9-89.14 17.434zm-1.433-4.586C-98.66 15.532-107.409 11.021-110 2.78c-2.647-8.203 1.801-17.04 9.907-19.724 8.087-2.647 16.799 1.827 19.428 10.067 2.646 8.203-1.765 17.077-9.908 19.725z"/>
</svg>
