<svg viewBox="0 0 250 29" xmlns="http://www.w3.org/2000/svg">
  <defs>
    <style>
      .logopath{fill:#90ba1e}
    </style>
  </defs>
  <g id="communicode-logo" class="cc-logo" data-name="communicode Logo">
    <path class="logopath" d="M10.91 10A8.41 8.41 0 0 1 18 13.43l2-1.25a8.47 8.47 0 0 0-2.15-2.44 10.49 10.49 0 0 0-3.08-1.56A12 12 0 0 0 11 7.59 11.53 11.53 0 0 0 5.39 9a10.13 10.13 0 0 0-4 3.82A10.3 10.3 0 0 0 0 18.1a9.65 9.65 0 0 0 3.07 7.21 10.7 10.7 0 0 0 7.74 3 12.1 12.1 0 0 0 5.42-1.17A9.48 9.48 0 0 0 20 23.81l-2-1.32a8.64 8.64 0 0 1-7.08 3.45 8.71 8.71 0 0 1-4.27-1 7.66 7.66 0 0 1-3-2.94 8 8 0 0 1-1.09-4 7.55 7.55 0 0 1 2.37-5.62A8.21 8.21 0 0 1 10.91 10zm21.32-2.41a9.74 9.74 0 0 0-7.55 3.31A10.21 10.21 0 0 0 22 18a10.24 10.24 0 0 0 2.87 7.21 9.65 9.65 0 0 0 7.4 3.08 9.63 9.63 0 0 0 7.38-3.08A10.24 10.24 0 0 0 42.48 18a10.24 10.24 0 0 0-2.72-7.11 9.74 9.74 0 0 0-7.53-3.3zM38.88 22a7.33 7.33 0 0 1-2.79 2.85 7.94 7.94 0 0 1-7.73 0 7.32 7.32 0 0 1-2.8-2.85 8 8 0 0 1-1-4 7.8 7.8 0 0 1 2.27-5.64 7.47 7.47 0 0 1 10.84 0A7.78 7.78 0 0 1 39.91 18a8 8 0 0 1-1.03 4zm87.46-4.71a19 19 0 0 1-.38 4.83 5.23 5.23 0 0 1-2 2.68 6.16 6.16 0 0 1-3.59 1 6.29 6.29 0 0 1-3.65-1 5.16 5.16 0 0 1-2.07-2.86 19.6 19.6 0 0 1-.36-4.63V8.1h-2.53v9.47a15.9 15.9 0 0 0 .95 6.28 7.19 7.19 0 0 0 2.87 3.25 9.12 9.12 0 0 0 4.8 1.17 9 9 0 0 0 4.78-1.17 7.25 7.25 0 0 0 2.84-3.22 15.27 15.27 0 0 0 .95-6.13V8.1h-2.59zm20.12-8.53a9.12 9.12 0 0 0-4.8-1.17 9 9 0 0 0-4.78 1.17A7.25 7.25 0 0 0 134 12a15.27 15.27 0 0 0-.95 6.13v9.66h2.59v-9.2a19 19 0 0 1 .38-4.83 5.23 5.23 0 0 1 2-2.68 6.16 6.16 0 0 1 3.59-1 6.29 6.29 0 0 1 3.65 1 5.16 5.16 0 0 1 2.13 2.92 19.6 19.6 0 0 1 .36 4.63v9.19h2.53V18.3a15.9 15.9 0 0 0-.95-6.28 7.19 7.19 0 0 0-2.87-3.26zm-43.05 0a9.12 9.12 0 0 0-4.8-1.17 9 9 0 0 0-4.78 1.17 7.2 7.2 0 0 0-2.55 2.63 7.13 7.13 0 0 0-2.55-2.63 9.12 9.12 0 0 0-4.8-1.17 9 9 0 0 0-4.78 1.17 7.2 7.2 0 0 0-2.55 2.63A7.13 7.13 0 0 0 74 8.76a9.12 9.12 0 0 0-4.8-1.17 9 9 0 0 0-4.78 1.17 7.2 7.2 0 0 0-2.55 2.63 7.13 7.13 0 0 0-2.55-2.63 9.12 9.12 0 0 0-4.8-1.17 9 9 0 0 0-4.78 1.17A7.25 7.25 0 0 0 46.92 12a15.27 15.27 0 0 0-.92 6.12v9.66h2.59v-9.19a19 19 0 0 1 .38-4.83 5.23 5.23 0 0 1 2-2.68 6.16 6.16 0 0 1 3.59-1 6.29 6.29 0 0 1 3.65 1A5.16 5.16 0 0 1 60.29 14a19.6 19.6 0 0 1 .36 4.63v9.19h2.59v-9.23a19 19 0 0 1 .38-4.83 5.23 5.23 0 0 1 2-2.68 6.16 6.16 0 0 1 3.59-1 6.29 6.29 0 0 1 3.65 1A5.16 5.16 0 0 1 75 14a19.6 19.6 0 0 1 .36 4.63v9.19h2.59v-9.23a19 19 0 0 1 .38-4.83 5.23 5.23 0 0 1 2-2.68 6.16 6.16 0 0 1 3.59-1 6.29 6.29 0 0 1 3.65 1A5.16 5.16 0 0 1 89.66 14a19.6 19.6 0 0 1 .34 4.59v9.19h2.6v-9.19a19 19 0 0 1 .4-4.83 5.23 5.23 0 0 1 2-2.68 6.16 6.16 0 0 1 3.59-1 6.29 6.29 0 0 1 3.65 1 5.16 5.16 0 0 1 2.1 2.92 19.6 19.6 0 0 1 .36 4.63v9.19h2.53V18.3a15.9 15.9 0 0 0-.95-6.28 7.19 7.19 0 0 0-2.87-3.26zM156 0a2 2 0 0 0-1.46.61 2 2 0 0 0-.61 1.48 2 2 0 0 0 .61 1.46 2.06 2.06 0 0 0 2.93 0 2 2 0 0 0 .61-1.46 2 2 0 0 0-.61-1.48A2 2 0 0 0 156 0zm-1.24 8.1h2.53v19.67h-2.53zM171.7 10a8.41 8.41 0 0 1 7.1 3.45l2-1.25a8.47 8.47 0 0 0-2.15-2.44 10.49 10.49 0 0 0-3.08-1.56 12 12 0 0 0-3.77-.6 11.53 11.53 0 0 0-5.63 1.4 10.13 10.13 0 0 0-4 3.82 10.31 10.31 0 0 0-1.44 5.31 9.65 9.65 0 0 0 3.07 7.21 10.7 10.7 0 0 0 7.74 3 12.1 12.1 0 0 0 5.46-1.23 9.48 9.48 0 0 0 3.79-3.29l-2-1.32a9.07 9.07 0 0 1-11.35 2.41 7.66 7.66 0 0 1-3-2.94 8 8 0 0 1-1.09-4 7.54 7.54 0 0 1 2.38-5.62A8.21 8.21 0 0 1 171.7 10zm21.57-2.41a9.74 9.74 0 0 0-7.55 3.31A10.21 10.21 0 0 0 183 18a10.24 10.24 0 0 0 2.87 7.21 10.4 10.4 0 0 0 14.78 0 10.24 10.24 0 0 0 2.87-7.21 10.24 10.24 0 0 0-2.72-7.11 9.74 9.74 0 0 0-7.53-3.3zM199.92 22a7.33 7.33 0 0 1-2.79 2.85 7.94 7.94 0 0 1-7.73 0 7.32 7.32 0 0 1-2.8-2.85 8 8 0 0 1-1-4 7.8 7.8 0 0 1 2.27-5.64 7.47 7.47 0 0 1 10.84 0A7.78 7.78 0 0 1 201 18a8 8 0 0 1-1.08 4zm45.14 2a7.69 7.69 0 0 1-2.42 1.39 8.41 8.41 0 0 1-2.92.52 7 7 0 0 1-5.23-2.19 8 8 0 0 1-2.19-5.62H250a10.65 10.65 0 0 0-2.17-6.73 9.7 9.7 0 0 0-8-3.82 9.4 9.4 0 0 0-7.8 3.72A10.52 10.52 0 0 0 229.7 18a10.64 10.64 0 0 0 2.71 7.13 9.4 9.4 0 0 0 7.53 3.16 10.79 10.79 0 0 0 3.89-.66 9.63 9.63 0 0 0 3.09-1.93 11.64 11.64 0 0 0 2.43-3.33l-2.13-1.12a11.8 11.8 0 0 1-2.16 2.75zm-10.21-12.12a7.21 7.21 0 0 1 5-1.86 7.85 7.85 0 0 1 3.35.74 7 7 0 0 1 2.56 2 8.4 8.4 0 0 1 1.48 3.24h-14.69a8.42 8.42 0 0 1 2.3-4.12zm-11.13-.74l-.22-.26a10.27 10.27 0 0 0-15.09 0A10.21 10.21 0 0 0 205.7 18a10.24 10.24 0 0 0 2.87 7.21 10.4 10.4 0 0 0 14.78 0 10.24 10.24 0 0 0 2.87-7.21V.51h-2.5zM222.62 22a7.33 7.33 0 0 1-2.79 2.85 7.94 7.94 0 0 1-7.73 0 7.32 7.32 0 0 1-2.8-2.85 8 8 0 0 1-1-4 7.8 7.8 0 0 1 2.27-5.64 7.47 7.47 0 0 1 10.84 0 7.78 7.78 0 0 1 2.24 5.64 8 8 0 0 1-1.03 4z"/>
  </g>
</svg>
