<svg xmlns="http://www.w3.org/2000/svg" width="256.008" height="256" viewBox="-120.004 -120 256.008 256">
  <path fill="#DEDEDE" d="M7.996-120c70.695 0 128.008 57.297 128.008 128 0 70.688-57.313 128-128.008 128s-128-57.313-128-128c0-70.703 57.305-128 128-128z"/>
  <path opacity=".1" d="M95.91 3.313c-9.032 0-17 4.25-22.313 10.75L40.848-5.469c1.781-3.5 2.875-7.375 2.875-11.563 0-4.031-1.031-7.813-2.656-11.188l24.781-16.594c3.156 3 7.406 4.938 12.125 4.938 9.781 0 17.719-7.937 17.719-17.719 0-9.781-7.938-17.688-17.719-17.688s-17.719 7.906-17.719 17.688c0 2.406.5 4.719 1.375 6.813L37.004-34.219c-4.688-5.188-11.406-8.469-18.938-8.469-14.172 0-25.641 11.469-25.641 25.656C-7.575-5.563-.012 4 10.379 7.281L7.52 51.938c-8.032.687-15.282 3.938-20.906 9.031L-39.09 35.531c2.328-3.375 3.984-7.219 3.984-11.594 0-8.188-4.797-15.094-11.64-18.5l4.453-8.719 8.375 4.25c1 .5 2.219.125 2.719-.906.281-.469.281-1 .125-1.5-.188-.469-.5-.937-.969-1.187l-8.407-4.281 1.406-2.75 5.813 2.969c1 .5 2.219.125 2.719-.875.25-.5.281-1.031.125-1.563-.156-.438-.5-.906-1-1.156l-5.844-2.969 1.375-2.781 8.407 4.281c1.031.5 2.219.125 2.75-.906.219-.469.25-1.031.094-1.531-.125-.469-.5-.906-.969-1.156l-8.407-4.282 2.313-4.531a1.904 1.904 0 0 0 .125-1.531c-.156-.531-.469-.938-1-1.188-.969-.531-2.219-.125-2.719.875L-50.606 4.125c-1.75-.469-3.453-1.063-5.343-1.063-11.532 0-20.875 9.344-20.875 20.875 0 11.5 9.343 20.844 20.875 20.844 4.484 0 8.422-1.719 11.813-4.156l25.906 25.656c-4.375 5.938-7.062 13.219-7.062 21.156 0 19.813 16.062 35.844 35.844 35.844 19.797 0 35.827-16.031 35.827-35.844 0-5.813-1.531-11.25-3.999-16.094l33.313-18.595c5.219 5.126 12.344 8.313 20.219 8.313 15.968 0 28.906-12.938 28.906-28.875-.002-15.967-12.94-28.873-28.908-28.873zM14.801 52.03l2.797-43.499c.156 0 .313.063.469.063 7.219 0 13.719-3 18.375-7.813l33.063 19.844a28.48 28.48 0 0 0-2.438 11.563c0 5.438 1.594 10.5 4.25 14.844L38.535 65.344c-5.719-7.25-14.094-12.157-23.734-13.314z"/>
  <g fill="#006065">
    <path d="M71.723 21.875L-1.083 62.531c-1.703.938-2.422 3.125-1.453 4.813.719 1.219 1.922 1.938 3.141 1.938.484 0 1.203-.25 1.688-.5l72.805-40.625c1.688-.968 2.406-3.124 1.469-4.813-.969-1.719-3.157-2.438-4.844-1.469zM-66.645 8.094c-1.453-1.469-3.625-1.469-5.078 0-1.453 1.438-1.453 3.625 0 5.063l50.063 49.594c.734.719 1.703.969 2.422.969.969 0 1.938-.25 2.656-.969 1.454-1.438 1.454-3.656 0-5.094L-66.645 8.094z"/>
    <path d="M78.004 10.25L7.855-31.594c-.25-.25-.719-.25-.969-.469l57.086-38.219c1.688-1.219 2.188-3.406.969-5.094s-3.375-2.188-5.063-.969L.121-36.188c-1.704 1.219-2.188 3.406-.969 5.094.719.969 1.938 1.688 2.907 1.688h.484c-.25.469-.25.969-.25 1.438-.484-.969-1.688-1.688-2.907-1.688-1.922 0-3.625 1.469-3.875 3.375l-6.281 97.719c-.234 1.969 1.453 3.656 3.39 3.875h.234c1.938 0 3.391-1.438 3.641-3.375l6.282-97.719v-.5c.234.5.734 1 1.203 1.219l70.148 42.094c.5.25 1.219.469 1.938.469 1.219 0 2.406-.719 3.156-1.688 1.219-2.157.719-4.344-1.218-5.563z"/>
  </g>
  <path fill="#F3F3F3" d="M-5.442 35.625c19.782 0 35.821 16.063 35.821 35.813 0 19.813-16.039 35.844-35.821 35.844-19.796 0-35.844-16.03-35.844-35.844 0-19.75 16.048-35.813 35.844-35.813z"/>
  <path fill="#C6D300" d="M-5.442 44.75c14.735 0 26.695 11.969 26.695 26.688 0 14.781-11.96 26.719-26.695 26.719-14.766 0-26.719-11.938-26.719-26.719 0-14.719 11.953-26.688 26.719-26.688z"/>
  <path fill="#F3F3F3" d="M79.879-12.688c15.969 0 28.905 12.906 28.905 28.875 0 15.938-12.937 28.875-28.905 28.875-15.906 0-28.813-12.938-28.813-28.875C51.065.219 63.973-12.688 79.879-12.688z"/>
  <path fill="#008F88" d="M79.691-4.75c11.5 0 20.813 9.313 20.813 20.813 0 11.501-9.313 20.813-20.813 20.813-11.469 0-20.813-9.312-20.813-20.813.001-11.5 9.345-20.813 20.813-20.813z"/>
  <path fill="#F3F3F3" d="M2.059-58.688c14.164 0 25.633 11.469 25.633 25.656 0 14.157-11.469 25.625-25.633 25.625-14.172 0-25.641-11.469-25.641-25.625 0-14.186 11.469-25.656 25.641-25.656z"/>
  <path fill="#8DB91C" d="M2.059-50.688c9.75 0 17.633 7.906 17.633 17.656S11.809-15.375 2.059-15.375s-17.672-7.907-17.672-17.657c0-9.749 7.921-17.656 17.672-17.656z"/>
  <path fill="#F3F3F3" d="M61.941-91.281c9.781 0 17.719 7.906 17.719 17.688s-7.938 17.719-17.719 17.719c-9.751 0-17.688-7.938-17.688-17.719s7.937-17.688 17.688-17.688z"/>
  <path fill="#5C861F" d="M61.785-84.563c6.156 0 11.156 5 11.156 11.125 0 6.156-5 11.125-11.156 11.125-6.126 0-11.126-4.969-11.126-11.125 0-6.124 5-11.125 11.126-11.125z"/>
  <path fill="#F3F3F3" d="M-71.958-12.938c11.532 0 20.859 9.344 20.859 20.875 0 11.5-9.328 20.844-20.859 20.844-11.531 0-20.859-9.344-20.859-20.844.001-11.531 9.328-20.875 20.859-20.875z"/>
  <path fill="#71A21F" d="M-71.723-5.469C-64.379-5.469-58.41.5-58.41 7.844s-5.969 13.281-13.313 13.281c-7.343 0-13.313-5.938-13.313-13.281s5.97-13.313 13.313-13.313z"/>
  <path fill="#F1E400" d="M-66.583 23.906c9.032-2.938 13.984-12.656 11.032-21.625-1.453-4.531-4.672-8.031-8.625-10.031l5.875-11.531 8.375 4.25c1 .5 2.219.125 2.719-.907.281-.469.281-1 .125-1.5-.188-.469-.5-.938-.969-1.188l-8.406-4.281 1.406-2.75 5.812 2.969c1 .5 2.235.125 2.719-.875.266-.5.297-1.031.125-1.563-.156-.438-.5-.906-1-1.156l-5.844-2.969 1.391-2.781 8.407 4.281c1.016.5 2.203.125 2.734-.906a2.152 2.152 0 0 0 .109-1.531c-.141-.469-.516-.906-.984-1.156l-8.406-4.281 2.313-4.531a1.911 1.911 0 0 0 .141-1.531c-.172-.531-.484-.938-1.016-1.188-.97-.531-2.204-.125-2.72.875L-68.004-9.094c-2.922-.688-6.078-.656-9.156.344-9 2.938-13.953 12.625-11 21.625 2.906 9 12.609 13.938 21.577 11.031zm-1.218-3.843c-6.875 2.25-14.313-1.531-16.516-8.438-2.25-6.875 1.531-14.281 8.422-16.531 6.875-2.219 14.281 1.531 16.516 8.438 2.25 6.874-1.5 14.312-8.422 16.531z"/>
</svg>
