<svg xmlns="http://www.w3.org/2000/svg" width="256" height="84" viewBox="-119.993 -33.997 256 84">
  <path fill="#A5A5A5" d="M-101.656 22.438a12.313 12.313 0 0 1 10.438 5.063l2.938-1.844a12.192 12.192 0 0 0-3.156-3.594 15.112 15.112 0 0 0-4.531-2.297 18.06 18.06 0 0 0-5.547-.875 16.964 16.964 0 0 0-8.266 2.094 14.953 14.953 0 0 0-5.891 5.609 15.047 15.047 0 0 0-2.031 7.781c-.078 4.016 1.578 7.859 4.516 10.594 3.047 2.969 7.156 4.531 11.391 4.422 2.75.078 5.5-.531 7.969-1.719a13.794 13.794 0 0 0 5.547-4.906l-2.938-1.922a12.715 12.715 0 0 1-10.422 5.063c-2.172.047-4.344-.438-6.281-1.469-1.844-1-3.375-2.5-4.422-4.313a11.86 11.86 0 0 1-1.594-5.891c-.047-3.141 1.219-6.156 3.484-8.281 2.327-2.328 5.514-3.578 8.796-3.515zm31.39-3.547a14.317 14.317 0 0 0-11.109 4.875 15.095 15.095 0 0 0-3.953 10.469 15.114 15.114 0 0 0 4.234 10.609c2.797 3 6.766 4.656 10.891 4.531a14.273 14.273 0 0 0 10.859-4.531 15.083 15.083 0 0 0 4.172-10.609c.047-3.891-1.375-7.641-4.016-10.469a14.298 14.298 0 0 0-11.078-4.875zm9.782 21.234a10.653 10.653 0 0 1-4.109 4.172 11.613 11.613 0 0 1-11.375 0 10.802 10.802 0 0 1-4.125-4.172c-1-1.797-1.5-3.844-1.469-5.891a11.525 11.525 0 0 1 3.344-8.313c4.188-4.406 11.141-4.578 15.547-.406.141.141.281.266.422.406a11.455 11.455 0 0 1 3.281 8.313 11.682 11.682 0 0 1-1.516 5.891zM68.25 33.172c.141 2.391-.063 4.797-.531 7.125a7.987 7.987 0 0 1-2.969 3.938c-1.578 1-3.406 1.547-5.281 1.453a9.02 9.02 0 0 1-5.359-1.453 7.739 7.739 0 0 1-3.063-4.203 29.376 29.376 0 0 1-.531-6.828V19.641h-3.703v13.938a23.391 23.391 0 0 0 1.391 9.266c.875 2 2.359 3.656 4.219 4.781a13.49 13.49 0 0 0 7.078 1.703c2.469.094 4.891-.5 7.031-1.703a10.565 10.565 0 0 0 4.172-4.766 22.913 22.913 0 0 0 1.422-9V19.641h-3.828l-.048 13.531zm29.609-12.547c-2.156-1.219-4.578-1.797-7.047-1.734a13.293 13.293 0 0 0-7.063 1.734 10.762 10.762 0 0 0-4.219 4.766c-1.078 2.875-1.578 5.953-1.391 9.016v14.219h3.813V35.094a27.205 27.205 0 0 1 .548-7.11 7.712 7.712 0 0 1 2.953-3.953c1.578-1.031 3.422-1.516 5.266-1.469 1.922-.078 3.766.438 5.391 1.469a7.48 7.48 0 0 1 3.141 4.297c.453 2.25.625 4.531.547 6.797v13.547h3.719V34.656a23.697 23.697 0 0 0-1.438-9.219c-.845-2.031-2.329-3.687-4.22-4.812zm-63.343 0c-2.156-1.219-4.594-1.797-7.078-1.734a13.161 13.161 0 0 0-7.016 1.734 10.5 10.5 0 0 0-3.766 3.859 10.454 10.454 0 0 0-3.75-3.859c-2.156-1.219-4.594-1.797-7.063-1.734a13.235 13.235 0 0 0-7.047 1.734 10.575 10.575 0 0 0-3.75 3.859 10.533 10.533 0 0 0-3.828-3.859c-2.156-1.219-4.594-1.797-7.063-1.734a13.144 13.144 0 0 0-7.031 1.734 10.5 10.5 0 0 0-3.766 3.859 10.454 10.454 0 0 0-3.75-3.859c-2.141-1.219-4.594-1.797-7.063-1.734a13.144 13.144 0 0 0-7.031 1.734 10.439 10.439 0 0 0-4.156 4.766 22.382 22.382 0 0 0-1.359 9V48.61h3.813V35.094a27.819 27.819 0 0 1 .563-7.109 7.548 7.548 0 0 1 2.953-3.953c1.547-1.031 3.406-1.516 5.266-1.469a9.282 9.282 0 0 1 5.391 1.469 7.67 7.67 0 0 1 3.047 4.297c.453 2.25.625 4.531.547 6.797v13.547h3.797V35.094a27.819 27.819 0 0 1 .563-7.109 7.631 7.631 0 0 1 2.953-3.953c1.547-1.031 3.406-1.516 5.281-1.469a9.2 9.2 0 0 1 5.375 1.469 7.545 7.545 0 0 1 3.141 4.297c.453 2.25.625 4.531.531 6.797v13.547h3.813V35.094a27.864 27.864 0 0 1 .563-7.109 7.684 7.684 0 0 1 2.938-3.953C2.109 23 3.953 22.516 5.828 22.563a9.178 9.178 0 0 1 5.359 1.469 7.591 7.591 0 0 1 3.078 4.297c.438 2.219.594 4.484.5 6.766v13.516h3.828V35.094a28.577 28.577 0 0 1 .594-7.109 7.6 7.6 0 0 1 2.938-3.953c1.563-1.031 3.406-1.516 5.297-1.469a9.23 9.23 0 0 1 5.375 1.469 7.571 7.571 0 0 1 3.063 4.297c.453 2.25.641 4.531.547 6.797v13.547h3.734V34.656a23.147 23.147 0 0 0-1.406-9.219 10.46 10.46 0 0 0-4.219-4.812zm66.937-48.516c-7.406 7.406-7.406 19.406 0 26.766 2.734 2.75 6.109 4.5 9.703 5.172l-.047 44.156c.047.672.547 1.219 1.219 1.219.313 0 .578-.141.813-.359.219-.234.344-.5.344-.813v-7.188h12.219c.328 0 .594-.141.813-.359.234-.219.359-.5.359-.813 0-.672-.484-1.203-1.172-1.203h-12.219v-6.031l8.906.047c.266-.047.578-.172.813-.359.219-.219.313-.531.344-.844-.031-.641-.531-1.172-1.203-1.172l-8.859-.047v-5.938h12.219c.328 0 .594-.172.813-.391.234-.234.359-.453.359-.813a1.19 1.19 0 0 0-1.172-1.172h-12.219V4.313c5.266.406 10.703-1.391 14.75-5.438 7.313-7.359 7.313-19.359 0-26.719-7.423-7.422-19.408-7.422-26.783-.047zm25.063 25.11c-6.469 6.469-16.938 6.469-23.406 0-6.422-6.469-6.469-16.938 0-23.406s16.984-6.469 23.406 0c6.468 6.468 6.468 16.937 0 23.406z"/>
</svg>
