<svg xmlns="http://www.w3.org/2000/svg" width="256" height="256" viewBox="-120 -120 256 256">
  <path fill="#5E5E5E" d="M8-120c70.688 0 128 57.305 128 128 0 70.688-57.313 128-128 128-70.695 0-128-57.313-128-128 0-70.695 57.305-128 128-128z"/>
  <path opacity=".1" d="M95.906 3.313c-9.031 0-17 4.25-22.313 10.766L40.844-5.469c1.781-3.484 2.875-7.375 2.875-11.563 0-4.031-1.031-7.797-2.656-11.188l24.781-16.578c3.156 3 7.406 4.922 12.125 4.922 9.781 0 17.719-7.938 17.719-17.719S87.75-75.281 77.969-75.281 60.25-67.375 60.25-57.594c0 2.422.5 4.719 1.375 6.828L37-34.203c-4.688-5.188-11.406-8.484-18.938-8.484C3.898-42.688-7.57-31.219-7.57-17.031c0 11.469 7.563 21.047 17.953 24.328l-2.86 44.641c-8.031.688-15.281 3.938-20.906 9.031l-25.703-25.438c2.328-3.359 3.984-7.203 3.984-11.594 0-8.172-4.797-15.078-11.641-18.5l4.453-8.719 8.375 4.25c1 .5 2.219.125 2.719-.906.281-.469.281-1 .125-1.5-.188-.469-.5-.938-.969-1.188l-8.406-4.281 1.406-2.75 5.813 2.969c1 .5 2.219.125 2.719-.875.25-.5.281-1.031.125-1.563-.156-.438-.5-.906-1-1.156l-5.844-2.969 1.375-2.781 8.406 4.281c1.031.5 2.219.125 2.75-.906.219-.469.25-1.031.094-1.531-.125-.469-.5-.906-.969-1.156l-8.406-4.281 2.313-4.531a1.904 1.904 0 0 0 .125-1.531c-.156-.531-.469-.938-1-1.188-.969-.531-2.219-.125-2.719.875L-50.602 4.141c-1.75-.469-3.453-1.078-5.344-1.078-11.531 0-20.875 9.344-20.875 20.875 0 11.5 9.344 20.844 20.875 20.844 4.484 0 8.422-1.719 11.813-4.141l25.906 25.656c-4.375 5.938-7.063 13.203-7.063 21.141 0 19.813 16.063 35.844 35.844 35.844 19.789 0 35.82-16.031 35.82-35.844 0-5.813-1.531-11.234-4-16.094L75.688 52.75c5.219 5.125 12.344 8.313 20.219 8.313 15.969 0 28.906-12.938 28.906-28.875 0-15.969-12.938-28.875-28.907-28.875zM14.805 52.047l2.789-43.5c.156 0 .313.047.469.047 7.219 0 13.719-3 18.375-7.797L69.5 20.641a28.462 28.462 0 0 0-2.438 11.547c0 5.453 1.594 10.5 4.25 14.859L38.531 65.344c-5.718-7.235-14.093-12.141-23.726-13.297z"/>
  <g fill="#006065">
    <path d="M71.719 21.875L-1.078 62.531c-1.703.938-2.422 3.125-1.453 4.813.719 1.219 1.922 1.938 3.141 1.938.484 0 1.203-.25 1.688-.5l72.813-40.625c1.688-.969 2.406-3.125 1.453-4.813-.955-1.719-3.158-2.438-4.845-1.469zM-66.641 8.094c-1.453-1.469-3.625-1.469-5.078 0-1.453 1.438-1.453 3.625 0 5.063l50.063 49.594c.734.719 1.703.969 2.422.969.969 0 1.938-.25 2.656-.969 1.453-1.438 1.453-3.656 0-5.094L-66.641 8.094z"/>
    <path d="M78 10.25L7.859-31.594c-.25-.25-.719-.25-.969-.469l57.094-38.219c1.688-1.219 2.172-3.406.969-5.094-1.219-1.688-3.391-2.188-5.078-.969L.125-36.188c-1.703 1.219-2.188 3.406-.969 5.094.719.969 1.938 1.688 2.906 1.688h.484c-.25.469-.25.969-.25 1.438-.484-.969-1.688-1.688-2.906-1.688-1.922 0-3.625 1.469-3.875 3.375l-6.281 97.719c-.234 1.969 1.453 3.656 3.391 3.875h.234c1.938 0 3.391-1.438 3.641-3.375l6.281-97.719v-.5c.234.5.734 1 1.203 1.219L74.14 17.032c.484.25 1.203.469 1.938.469 1.219 0 2.406-.719 3.141-1.688 1.219-2.157.734-4.344-1.219-5.563z"/>
  </g>
  <path fill="#FFF" d="M-5.438 35.625c19.781 0 35.813 16.063 35.813 35.813 0 19.813-16.031 35.844-35.813 35.844-19.797 0-35.844-16.031-35.844-35.844.001-19.75 16.048-35.813 35.844-35.813z"/>
  <path fill="#C6D300" d="M-5.438 44.75c14.734 0 26.703 11.969 26.703 26.688 0 14.781-11.969 26.719-26.703 26.719-14.766 0-26.719-11.938-26.719-26.719.001-14.719 11.954-26.688 26.719-26.688z"/>
  <path fill="#FFF" d="M79.891-12.688c15.969 0 28.906 12.906 28.906 28.875 0 15.938-12.938 28.875-28.906 28.875-15.906 0-28.828-12.938-28.828-28.875 0-15.968 12.921-28.875 28.828-28.875z"/>
  <path fill="#008F88" d="M79.688-4.75c11.516 0 20.813 9.313 20.813 20.813s-9.297 20.813-20.813 20.813c-11.469 0-20.797-9.313-20.797-20.813S68.219-4.75 79.688-4.75z"/>
  <path fill="#FFF" d="M2.063-58.688c14.156 0 25.641 11.469 25.641 25.656 0 14.156-11.484 25.625-25.641 25.625-14.172 0-25.641-11.469-25.641-25.625 0-14.187 11.469-25.656 25.641-25.656z"/>
  <path fill="#8DB91C" d="M2.063-50.688c9.75 0 17.641 7.906 17.641 17.656S11.813-15.375 2.063-15.375s-17.672-7.906-17.672-17.656 7.921-17.657 17.672-17.657z"/>
  <path fill="#FFF" d="M61.953-91.281c9.781 0 17.719 7.906 17.719 17.688s-7.938 17.719-17.719 17.719c-9.766 0-17.703-7.938-17.703-17.719s7.938-17.688 17.703-17.688z"/>
  <path fill="#5C861F" d="M61.797-84.563c6.156 0 11.141 5 11.141 11.125 0 6.156-4.984 11.125-11.141 11.125-6.141 0-11.125-4.969-11.125-11.125 0-6.125 4.984-11.125 11.125-11.125z"/>
  <path fill="#FFF" d="M-71.953-12.938c11.531 0 20.859 9.344 20.859 20.875 0 11.5-9.328 20.844-20.859 20.844s-20.859-9.344-20.859-20.844c-.001-11.531 9.328-20.875 20.859-20.875z"/>
  <path fill="#71A21F" d="M-71.719-5.469c7.344 0 13.313 5.969 13.313 13.313s-5.969 13.281-13.313 13.281-13.313-5.938-13.313-13.281 5.969-13.313 13.313-13.313z"/>
  <path fill="#F1E400" d="M-66.578 23.906c9.031-2.938 13.984-12.656 11.031-21.625C-57-2.25-60.219-5.75-64.172-7.75l5.875-11.531 8.375 4.25c1 .5 2.219.125 2.719-.906.281-.469.281-1 .125-1.5-.188-.469-.5-.938-.969-1.188l-8.406-4.281 1.406-2.75 5.813 2.969c1 .5 2.234.125 2.719-.875.266-.5.297-1.031.125-1.563-.156-.438-.5-.906-1-1.156l-5.844-2.969 1.391-2.781 8.406 4.281c1.016.5 2.203.125 2.734-.906a2.152 2.152 0 0 0 .109-1.531c-.141-.469-.516-.906-.984-1.156l-8.406-4.281 2.313-4.531a1.911 1.911 0 0 0 .141-1.531c-.172-.531-.484-.938-1.016-1.188-.97-.532-2.204-.126-2.72.874L-68-9.094c-2.922-.688-6.078-.656-9.156.344-9 2.938-13.953 12.625-11 21.625 2.906 9 12.609 13.938 21.578 11.031zm-1.219-3.843c-6.875 2.25-14.313-1.531-16.516-8.438-2.25-6.875 1.531-14.281 8.422-16.531 6.875-2.219 14.281 1.531 16.516 8.438 2.25 6.874-1.5 14.312-8.422 16.531z"/>
</svg>
