<svg xmlns="http://www.w3.org/2000/svg" width="256" height="256" viewBox="-119.5 -119.5 256 256">
  <path opacity=".1" d="M102.496-6.638c-10.623 0-19.997 5.071-26.246 12.826L37.725-17.115c2.096-4.176 3.382-8.799 3.382-13.796 0-4.81-1.213-9.321-3.125-13.348l29.151-19.799c3.713 3.58 8.712 5.891 14.264 5.891 11.506 0 20.843-9.47 20.843-21.141s-9.337-21.104-20.843-21.104c-11.507 0-20.844 9.433-20.844 21.104 0 2.871.588 5.63 1.617 8.128L33.203-51.417c-5.514-6.189-13.418-10.104-22.277-10.104-16.661 0-30.152 13.684-30.152 30.611 0 13.684 8.896 25.093 21.119 29.008l-3.363 53.28c-9.448.82-17.976 4.698-24.593 10.775l-30.235-30.35c2.738-4.027 4.687-8.613 4.687-13.833 0-9.769-5.643-18.009-13.693-22.073l5.238-10.402 9.852 5.071c1.176.597 2.61.149 3.198-1.082.331-.559.331-1.193.147-1.79-.22-.559-.588-1.119-1.14-1.417l-9.888-5.108 1.654-3.281 6.838 3.542c1.176.596 2.61.149 3.198-1.044.294-.597.331-1.23.147-1.864-.184-.522-.588-1.082-1.177-1.38l-6.874-3.542 1.618-3.318 9.888 5.108c1.213.597 2.61.149 3.235-1.081.257-.56.294-1.23.11-1.827-.147-.559-.588-1.081-1.14-1.379l-9.888-5.108 2.72-5.407a2.298 2.298 0 0 0 .147-1.827c-.184-.634-.551-1.119-1.176-1.417-1.14-.634-2.61-.149-3.198 1.044L-69.846-5.668c-2.059-.559-4.062-1.268-6.286-1.268-13.564 0-24.556 11.148-24.556 24.907 0 13.721 10.992 24.869 24.556 24.869 5.275 0 9.907-2.051 13.896-4.959l30.475 30.611c-5.146 7.084-8.308 15.771-8.308 25.242 0 23.639 18.895 42.766 42.165 42.766 23.278 0 42.137-19.127 42.137-42.766 0-6.936-1.802-13.423-4.706-19.202l39.188-22.185c6.139 6.114 14.52 9.918 23.783 9.918 18.785 0 34.004-15.437 34.004-34.452-.002-19.052-15.221-34.451-34.006-34.451zM7.094 51.49L10.375-.411c.184 0 .367.075.551.075 8.492 0 16.139-3.58 21.615-9.321l38.893 23.676a34.402 34.402 0 0 0-2.867 13.795c0 6.488 1.875 12.528 5 17.711L35.004 67.373c-6.727-8.65-16.578-14.504-27.91-15.883z"/>
  <g fill="#006065">
    <path d="M74.044 15.51L-11.59 64.018c-2.003 1.118-2.849 3.729-1.709 5.742.845 1.454 2.261 2.312 3.694 2.312.57 0 1.415-.298 1.985-.597l85.633-48.471c1.985-1.156 2.831-3.729 1.729-5.742-1.139-2.051-3.713-2.908-5.698-1.752zM-88.713-.933c-1.709-1.752-4.265-1.752-5.974 0-1.709 1.715-1.709 4.325 0 6.04l58.89 59.171c.864.857 2.003 1.156 2.849 1.156 1.139 0 2.279-.299 3.125-1.156 1.709-1.715 1.709-4.362 0-6.077L-88.713-.933z"/>
    <path d="M81.433 1.64L-1.076-48.285c-.294-.298-.845-.298-1.14-.56l67.144-45.6c1.984-1.454 2.573-4.064 1.14-6.078-1.435-2.013-3.971-2.61-5.956-1.156l-70.286 47.912c-2.003 1.454-2.573 4.064-1.14 6.077.846 1.156 2.279 2.014 3.419 2.014h.57c-.295.56-.295 1.156-.295 1.716-.57-1.156-1.985-2.013-3.418-2.013-2.261 0-4.264 1.752-4.559 4.027l-7.389 116.59c-.276 2.35 1.709 4.362 3.988 4.624h.276c2.279 0 3.989-1.716 4.283-4.027L-7.05-41.35v-.597c.276.597.864 1.193 1.416 1.454L76.874 9.73c.589.298 1.435.56 2.279.56 1.434 0 2.831-.858 3.713-2.014 1.434-2.572.846-5.182-1.433-6.636z"/>
  </g>
  <path fill="#F3F3F3" d="M-16.718 31.915c23.27 0 42.128 19.165 42.128 42.729 0 23.64-18.858 42.767-42.128 42.767-23.288 0-42.164-19.127-42.164-42.767 0-23.564 18.877-42.729 42.164-42.729z"/>
  <path fill="#C6D300" d="M-16.718 42.803c17.333 0 31.394 14.28 31.394 31.841 0 17.637-14.061 31.879-31.394 31.879-17.369 0-31.43-14.242-31.43-31.879 0-17.561 14.061-31.841 31.43-31.841z"/>
  <path fill="#F3F3F3" d="M83.639-25.728c18.784 0 34.003 15.398 34.003 34.451 0 19.016-15.219 34.451-34.003 34.451-18.711 0-33.894-15.436-33.894-34.451 0-19.052 15.183-34.451 33.894-34.451z"/>
  <path fill="#008F88" d="M83.418-16.257c13.527 0 24.482 11.111 24.482 24.832 0 13.722-10.955 24.832-24.482 24.832-13.491 0-24.482-11.11-24.482-24.832 0-13.721 10.991-24.832 24.482-24.832z"/>
  <path fill="#F3F3F3" d="M-7.895-80.611c16.653 0 30.143 13.684 30.143 30.611 0 16.89-13.49 30.574-30.143 30.574-16.671 0-30.162-13.684-30.162-30.574 0-16.928 13.491-30.611 30.162-30.611z"/>
  <path fill="#8DB91C" d="M-7.895-71.066c11.469 0 20.733 9.433 20.733 21.066S3.574-28.934-7.895-28.934-28.683-38.368-28.683-50s9.319-21.066 20.788-21.066z"/>
  <path fill="#F3F3F3" d="M62.538-119.5c11.506 0 20.843 9.433 20.843 21.104 0 11.67-9.337 21.141-20.843 21.141-11.47 0-20.807-9.471-20.807-21.141 0-11.671 9.337-21.104 20.807-21.104z"/>
  <path fill="#5C861F" d="M62.354-111.484c7.241 0 13.123 5.966 13.123 13.274 0 7.345-5.882 13.273-13.123 13.273-7.205 0-13.087-5.929-13.087-13.273.001-7.308 5.882-13.274 13.087-13.274z"/>
  <path fill="#F3F3F3" d="M-94.962-26.026c13.564 0 24.538 11.148 24.538 24.906 0 13.721-10.973 24.87-24.538 24.87S-119.5 12.602-119.5-1.12c0-13.758 10.973-24.906 24.538-24.906z"/>
  <path fill="#71A21F" d="M-94.687-17.115c8.639 0 15.66 7.121 15.66 15.883s-7.021 15.847-15.66 15.847-15.66-7.084-15.66-15.847 7.022-15.883 15.66-15.883z"/>
  <path fill="#F1E400" d="M-88.64 17.934c10.624-3.505 16.45-15.101 12.977-25.802-1.709-5.406-5.496-9.583-10.146-11.969l6.911-13.758 9.852 5.07c1.176.597 2.61.149 3.198-1.081.331-.559.331-1.193.147-1.79-.22-.56-.588-1.119-1.14-1.417l-9.888-5.108 1.654-3.281 6.838 3.542c1.176.597 2.628.149 3.198-1.044.313-.597.35-1.23.147-1.864-.184-.522-.588-1.081-1.177-1.379l-6.874-3.542 1.636-3.318 9.889 5.108c1.195.597 2.592.149 3.216-1.081.258-.56.313-1.23.129-1.827-.166-.56-.606-1.082-1.158-1.379l-9.889-5.108 2.72-5.406a2.31 2.31 0 0 0 .166-1.827c-.202-.634-.57-1.118-1.195-1.417-1.14-.634-2.592-.149-3.198 1.044l-19.685 39.26c-3.438-.82-7.15-.783-10.771.41-10.587 3.505-16.414 15.063-12.939 25.801C-110.604 15.51-99.19 21.4-88.64 17.934zm-1.433-4.587c-8.087 2.685-16.836-1.826-19.428-10.066-2.647-8.203 1.801-17.04 9.907-19.724 8.087-2.647 16.8 1.827 19.428 10.067 2.646 8.202-1.765 17.076-9.907 19.723z"/>
</svg>
